HIERARCHY
ROOT Hips
{
	OFFSET -3.958830 18.904000 13.208200
	CHANNELS 6 Xposition Yposition Zposition Zrotation Yrotation Xrotation 
	JOINT LHipJoint
	{
		OFFSET 0.000000 0.000000 0.000000
		CHANNELS 3 Zrotation Yrotation Xrotation
		JOINT LeftUpLeg
		{
			OFFSET 1.800000 -1.400000 0.085000
			CHANNELS 3 Zrotation Yrotation Xrotation
			JOINT LeftLeg
			{
				OFFSET 2.215000 -6.000000 0.000000
				CHANNELS 3 Zrotation Yrotation Xrotation
				JOINT LeftFoot
				{
					OFFSET 2.500000 -6.900000 0.000000
					CHANNELS 3 Zrotation Yrotation Xrotation
					JOINT LeftToeBase
					{
						OFFSET 0.200000 -0.500000 1.950000
						CHANNELS 3 Zrotation Yrotation Xrotation
						End Site
						{
							OFFSET 0.000000 0.000000 0.000000
						}
					}
				}
			}
		}
	}
	JOINT RHipJoint
	{
		OFFSET 0.000000 0.000000 0.000000
		CHANNELS 3 Zrotation Yrotation Xrotation
		JOINT RightUpLeg
		{
			OFFSET -1.800000 -1.400000 0.085000
			CHANNELS 3 Zrotation Yrotation Xrotation
			JOINT RightLeg
			{
				OFFSET -2.215000 -6.000000 0.000000
				CHANNELS 3 Zrotation Yrotation Xrotation
				JOINT RightFoot
				{
					OFFSET -2.500000 -6.900000 0.000000
					CHANNELS 3 Zrotation Yrotation Xrotation
					JOINT RightToeBase
					{
						OFFSET -0.200000 -0.500000 1.950000
						CHANNELS 3 Zrotation Yrotation Xrotation
						End Site
						{
							OFFSET 0.000000 0.000000 0.000000
						}
					}
				}
			}
		}
	}
	JOINT LowerBack
	{
		OFFSET 0.000000 0.000000 0.000000
		CHANNELS 3 Zrotation Yrotation Xrotation
		JOINT Spine
		{
			OFFSET -0.087000 1.940000 -0.288900
			CHANNELS 3 Zrotation Yrotation Xrotation
			JOINT Spine1
			{
				OFFSET 0.000000 1.950000 0.060000
				CHANNELS 3 Zrotation Yrotation Xrotation
				JOINT Neck
				{
					OFFSET 0.000000 0.000000 0.000000
					CHANNELS 3 Zrotation Yrotation Xrotation
					JOINT Neck1
					{
						OFFSET 0.000000 1.600000 0.340000
						CHANNELS 3 Zrotation Yrotation Xrotation
						JOINT Head
						{
							OFFSET 0.000000 1.667000 -0.240000
							CHANNELS 3 Zrotation Yrotation Xrotation
							End Site
							{
								OFFSET 0.000000 0.000000 0.000000
							}
						}
					}
				}
				JOINT LeftShoulder
				{
					OFFSET 0.000000 0.000000 0.000000
					CHANNELS 3 Zrotation Yrotation Xrotation
					JOINT LeftArm
					{
						OFFSET 2.700000 1.550000 -0.730000
						CHANNELS 3 Zrotation Yrotation Xrotation
						JOINT LeftForeArm
						{
							OFFSET 5.450000 0.000000 0.000000
							CHANNELS 3 Zrotation Yrotation Xrotation
							JOINT LeftHand
							{
								OFFSET 3.450000 0.000000 0.000000
								CHANNELS 3 Zrotation Yrotation Xrotation
								JOINT LeftHandIndex1
								{
									OFFSET 0.750000 0.000000 0.000000
									CHANNELS 3 Zrotation Yrotation Xrotation
									End Site
									{
										OFFSET 0.000000 0.000000 0.000000
									}
								}
							}
						}
					}
				}
				JOINT RightShoulder
				{
					OFFSET 0.000000 0.000000 0.000000
					CHANNELS 3 Zrotation Yrotation Xrotation
					JOINT RightArm
					{
						OFFSET -2.700000 1.550000 -0.730000
						CHANNELS 3 Zrotation Yrotation Xrotation
						JOINT RightForeArm
						{
							OFFSET -5.450000 0.000000 0.000000
							CHANNELS 3 Zrotation Yrotation Xrotation
							JOINT RightHand
							{
								OFFSET -3.450000 0.000000 0.000000
								CHANNELS 3 Zrotation Yrotation Xrotation
								JOINT RightHandIndex1
								{
									OFFSET -0.750000 0.000000 0.000000
									CHANNELS 3 Zrotation Yrotation Xrotation
									End Site
									{
										OFFSET 0.000000 0.000000 0.000000
									}
								}
							}
						}
					}
				}
			}
		}
	}
}
MOTION
Frames: 8
Frame Time: 0.016667
0.113590 16.238690 0.115940 -5.887900 -16.256602 6.454729 -15.186740 12.773399 2.622361 1.233481 -3.465350 0.292756 -12.044803 11.324445 30.879634 0.402678 7.799931 2.126853 0.529370 0.064560 0.475450 18.641955 -8.355248 4.879595 7.049568 10.865359 -52.556011 5.463378 -11.013570 48.781130 -0.951607 -7.039731 1.990105 0.040720 0.300930 0.365910 -4.185759 -3.883757 -8.075723 18.940996 -12.198162 22.236444 -7.476231 -9.787673 6.944715 -0.565221 -6.647586 -8.295255 -16.245136 9.055476 31.090369 -6.281960 9.982960 -5.989600 -1.199433 6.023704 0.977366 -26.745168 -15.208175 -0.179757 89.793621 -63.749419 -60.092143 -3.514984 1.670572 0.500960 0.235620 -0.056410 0.297830 2.159370 -6.876195 4.105786 55.815620 -8.253114 -10.507234 69.531263 47.538340 25.187831 1.806452 -2.242819 -0.155760 0.078430 -0.140910 -0.252010 
0.136720 16.049040 0.105010 -5.666929 -16.760607 4.061884 -15.170301 12.662527 2.718684 0.875925 -3.841876 2.431182 -12.821591 12.314539 33.279924 0.547374 8.401042 1.922056 0.492840 0.024370 0.501490 18.658388 -8.390762 4.852092 6.128378 10.697599 -52.153156 6.864498 -12.752843 52.188823 -1.156005 -7.888140 1.720822 0.012360 0.249420 0.333980 -4.248964 -3.711486 -8.194704 19.355041 -13.088542 26.236147 -7.979808 -10.505408 6.221452 -0.371182 -6.868649 -8.465247 -16.877022 9.275730 31.812314 -8.083230 10.644190 -7.670190 0.289675 5.688386 0.235821 -21.452523 -11.353508 -3.314460 76.941471 -69.246414 -51.237930 -3.316903 1.594605 0.551320 0.196330 -0.024920 0.248650 0.408481 -6.646333 4.861390 54.383699 -9.169199 -9.911101 78.670446 49.344410 31.015638 1.795600 -2.257400 -0.178800 0.100470 -0.118190 -0.286330 
0.165810 15.890990 0.083560 -4.931844 -16.950275 1.364778 -15.204931 12.583131 2.889003 -0.110022 -4.521278 3.770530 -13.705033 13.414698 36.495403 0.750682 9.020047 1.679991 0.566450 0.113960 0.597590 18.625299 -8.379168 4.792896 5.218931 10.293491 -51.789689 7.163059 -13.874331 55.519293 -1.389764 -8.592040 1.480779 0.022800 0.119990 0.354840 -4.152979 -3.722430 -8.356656 17.856910 -13.390988 30.551985 -7.272297 -10.878391 6.909391 -0.093715 -6.649760 -8.711189 -16.727537 9.196961 33.274904 -9.948320 10.962240 -11.350470 0.182942 3.976905 -0.428744 -15.300793 -7.176493 -5.878625 59.385705 -73.028137 -40.755953 -3.318493 2.237037 0.604120 0.117020 0.083370 0.223750 0.122340 -4.926557 5.880757 52.026493 -10.273656 -10.226502 88.859572 51.414432 37.604946 1.823509 -2.283580 -0.113140 0.067420 -0.161670 -0.305960 
0.205520 15.747640 0.069060 -4.742044 -17.673342 0.292409 -15.257281 12.373923 3.021113 -0.735373 -5.739381 2.989668 -15.298719 15.084244 40.581895 0.958536 9.863662 1.380722 0.582250 0.115650 0.638350 18.612930 -8.177771 4.884432 4.538157 10.841084 -53.048834 7.373557 -15.010431 59.146495 -1.595873 -9.376047 1.229456 0.007850 0.061500 0.379510 -4.099767 -3.746797 -8.527764 17.536035 -13.519590 32.460804 -6.790270 -10.806508 8.131407 0.252715 -6.909361 -9.522394 -17.502131 9.493408 34.224070 -11.569700 11.182860 -12.257400 -0.075606 2.320562 -0.161844 -10.530776 -3.470877 -6.158336 41.921915 -73.797216 -29.585737 -3.426576 2.855723 0.634670 0.088930 0.122780 0.195750 -0.208204 -2.707267 7.080132 49.291004 -11.599335 -10.565781 98.389448 52.454316 43.833996 1.842575 -2.289738 -0.086120 0.035090 -0.157710 -0.326960 
0.238830 15.640900 0.065760 -4.237178 -18.321348 -0.533346 -15.297302 12.142784 3.150111 -1.675614 -6.768578 1.967224 -16.569384 16.578137 44.049318 1.081124 10.604464 1.123439 0.570520 0.077970 0.672760 18.616081 -8.003407 4.977997 4.040556 11.451522 -54.438233 6.593296 -15.491806 62.681088 -1.751655 -9.992085 1.040122 -0.003850 0.023780 0.369230 -4.090934 -3.685954 -8.676148 17.197199 -13.499549 33.506255 -6.961756 -10.625787 9.459532 0.658166 -7.068277 -10.322993 -18.133649 10.126059 35.416510 -12.933200 11.501480 -13.723050 -0.697702 0.715296 0.175710 -5.953469 -0.456432 -5.618137 23.960814 -73.732118 -17.516638 -3.498335 3.163104 0.704390 0.060190 0.144210 0.153610 -0.319996 -0.716130 8.180057 47.384203 -13.010051 -10.977918 106.544742 52.089060 48.786755 1.839094 -2.233845 -0.117750 0.055430 -0.125880 -0.373330 
0.266120 15.591340 0.067240 -4.110986 -18.115265 -1.262185 -15.328754 12.053707 3.259921 -1.757238 -7.655476 1.194660 -17.584015 17.700782 46.371989 1.240495 11.066023 0.963880 0.623870 0.145070 0.718970 18.597388 -7.915268 4.959571 3.319680 11.267532 -54.797694 6.987320 -16.334650 64.119158 -1.886416 -10.332492 0.941084 0.000610 -0.050070 0.375190 -4.027154 -3.753174 -8.760478 17.102826 -13.678327 34.341970 -6.472471 -10.628372 10.588499 1.007972 -7.253577 -11.175100 -19.050134 10.411300 36.880666 -13.701310 11.170370 -15.556240 -0.827518 -0.545403 0.900251 -4.112806 1.532818 -5.209504 5.599033 -73.915857 -5.312515 -3.457337 3.378506 0.737830 0.000530 0.215010 0.158960 -0.782070 0.950100 8.959054 45.695467 -13.840727 -11.242428 112.452920 50.600049 51.304283 1.858467 -2.235171 -0.070640 0.043850 -0.164660 -0.368220 
0.286200 15.585100 0.070920 -4.056960 -18.316706 -1.458309 -15.336083 12.006913 3.313927 -2.056632 -7.906312 0.590551 -17.753060 18.229791 47.749964 1.330175 11.270138 0.883457 0.646370 0.185630 0.747500 18.594612 -7.896958 4.947305 2.928783 11.257069 -54.640880 7.147114 -16.484603 64.210544 -1.912876 -10.351912 0.937203 -0.001810 -0.100550 0.376320 -4.020976 -3.723520 -8.786272 17.445291 -13.681857 34.369733 -6.534233 -10.447486 11.141052 1.351760 -7.330182 -11.639567 -19.528022 10.774952 37.846852 -14.844740 11.341370 -16.366210 -0.805051 -1.182174 1.381356 -3.109716 2.202538 -4.549537 -11.531949 -71.454560 6.307413 -3.446541 3.488654 0.736810 -0.025190 0.252990 0.149200 -1.459791 1.814874 9.263216 44.659155 -13.702476 -10.888963 115.531903 48.589684 51.438762 1.866118 -2.254143 -0.032430 0.027510 -0.184000 -0.365010 
0.292690 15.620790 0.085520 -3.961616 -18.514392 -1.300463 -15.293327 11.973834 3.287740 -2.516392 -7.468786 0.555512 -17.149572 17.916079 47.612670 1.290473 11.159187 0.901992 0.644320 0.195220 0.754240 18.629592 -8.018916 4.920563 2.824720 11.234988 -53.867463 7.467599 -16.249291 63.029058 -1.860059 -10.142569 0.981988 0.005270 -0.099210 0.393460 -4.140201 -3.451478 -8.725861 18.402768 -13.609267 33.508973 -7.569743 -10.102867 11.222943 1.431342 -7.131816 -11.398879 -18.865088 10.882203 37.758083 -15.278480 11.593670 -16.397500 -1.028949 -1.332496 1.065669 -1.633726 0.563213 -3.598107 -25.539414 -66.503945 14.759578 -3.497460 3.529841 0.721140 -0.005960 0.256710 0.134220 -1.482297 1.701649 9.200516 44.477079 -13.563016 -10.214329 117.865225 46.672957 51.380365 1.846591 -2.283952 -0.022280 0.021490 -0.172820 -0.365260 
